<svg preserveAspectRatio="xMidYMid meet" data-bbox="0.078 0 136.922 49.045" xmlns="http://www.w3.org/2000/svg" viewBox="0 0 138 50" height="50" width="138" data-type="ugc" role="presentation" aria-hidden="true" aria-label="">
    <g>
        <g clip-path="url(#aff6aeb6-40f7-4a15-ad7f-818f62897714_comp-lwj88nkz)">
            <path fill="url(#a36a22f5-efff-4c9a-b1ec-d935139f1960_comp-lwj88nkz)" d="M48.078 24c0 13.255-10.745 24-24 24s-24-10.745-24-24 10.745-24 24-24 24 10.745 24 24Z"></path>
            <path fill="#ffffff" d="M24.079 11.04c-7.158 0-12.96 5.802-12.96 12.96 0 .703.056 1.392.163 2.064.071.459.34 1.454.843 1.763.628.386 1.34.054 1.922-.217l.003-.002 2.46-1.147a1.05 1.05 0 0 1 .89.022c.461.235.596.72.569 1.008-.027.288-.183.67-.575.851L14.35 29.76c-.19.073-.61.348-.772.86a1.41 1.41 0 0 0 .225 1.278c.083.113.33.366.655.47a1.39 1.39 0 0 0 1.028-.042c.218-.1 4.544-2.117 6.68-3.114.14-.07.512-.16.879.033.458.241.59.695.567.976-.023.28-.178.692-.56.87-.306.144-3.148 1.467-4.53 2.11-.244.11-.738.5-.767 1.17a1.39 1.39 0 0 0 .787 1.35c.192.1.697.241 1.18.017.485-.224 5.627-2.622 8.137-3.793.15-.077.554-.176.899 0 .452.23.602.624.602.921 0 .298-.014.516-.485.938-.411.369-1.016.732-3.075 1.61-.705.3-1.186.521-1.106.9.059.286.267.394.956.363.69-.031 3.795-.275 6.905-2.873A12.93 12.93 0 0 0 37.04 24c0-1.443-.236-2.831-.672-4.128a1.248 1.248 0 0 1-1.02-2.278A12.955 12.955 0 0 0 24.08 11.04Zm4.8 8.16a1.248 1.248 0 1 1-2.496 0 1.248 1.248 0 0 1 2.496 0Z" clip-rule="evenodd" fill-rule="evenodd"></path>
        </g>
        <path fill="#000000" d="M65.77 33.228c-2.029 0-3.863-.455-5.502-1.366a10.125 10.125 0 0 1-3.863-3.902C55.468 26.269 55 24.318 55 22.106c0-2.185.481-4.123 1.444-5.814.962-1.69 2.276-2.992 3.941-3.902 1.665-.91 3.525-1.366 5.58-1.366s3.916.455 5.58 1.366c1.665.91 2.98 2.211 3.942 3.902.962 1.691 1.444 3.63 1.444 5.814 0 2.186-.495 4.124-1.483 5.815a10.369 10.369 0 0 1-4.058 3.941c-1.692.91-3.565 1.366-5.62 1.366Zm0-3.863a6.51 6.51 0 0 0 3.2-.82c1.015-.546 1.834-1.366 2.459-2.458.624-1.093.936-2.42.936-3.98 0-1.561-.3-2.875-.897-3.942-.599-1.092-1.392-1.912-2.38-2.458a6.508 6.508 0 0 0-3.2-.82 6.51 6.51 0 0 0-3.2.82c-.963.546-1.73 1.366-2.303 2.458-.572 1.067-.858 2.38-.858 3.942 0 2.315.585 4.11 1.756 5.385 1.196 1.248 2.692 1.873 4.487 1.873Z"></path>
        <path fill="#000000" d="m89.445 22.145 9.912 10.732h-6.01l-7.96-9.249v9.249h-4.449V4h4.449v16.78l7.804-9.405h6.166l-9.912 10.77Z"></path>
        <path fill="#000000" d="M107.345 15.004v11.902c0 .807.182 1.392.546 1.756.391.338 1.041.508 1.952.508h2.731v3.707h-3.512c-2.003 0-3.538-.469-4.605-1.405-1.066-.937-1.6-2.459-1.6-4.566V15.004h-2.536v-3.629h2.536V6.03h4.488v5.346h5.229v3.63h-5.229Z"></path>
        <path fill="#000000" d="M125.61 33.228c-2.029 0-3.863-.455-5.502-1.366a10.126 10.126 0 0 1-3.863-3.902c-.937-1.691-1.405-3.642-1.405-5.854 0-2.185.481-4.123 1.444-5.814.963-1.69 2.276-2.992 3.941-3.902 1.665-.91 3.525-1.366 5.58-1.366 2.056 0 3.916.455 5.581 1.366 1.665.91 2.978 2.211 3.941 3.902.963 1.691 1.444 3.63 1.444 5.814 0 2.186-.494 4.124-1.483 5.815a10.37 10.37 0 0 1-4.058 3.941c-1.691.91-3.564 1.366-5.62 1.366Zm0-3.863a6.508 6.508 0 0 0 3.2-.82c1.015-.546 1.834-1.366 2.459-2.458.624-1.093.936-2.42.936-3.98 0-1.561-.299-2.875-.897-3.942-.599-1.092-1.392-1.912-2.381-2.458a6.507 6.507 0 0 0-3.2-.82 6.506 6.506 0 0 0-3.199.82c-.963.546-1.73 1.366-2.303 2.458-.572 1.067-.858 2.38-.858 3.942 0 2.315.585 4.11 1.756 5.385 1.196 1.248 2.692 1.873 4.487 1.873Z"></path>
        <path fill="#182954" d="m99.631 45.109 1.112.953c-.213.297-.47.56-.762.78a4.708 4.708 0 0 1-1.2.682 4.036 4.036 0 0 1-1.498.273 4.323 4.323 0 0 1-2.223-.57 4.042 4.042 0 0 1-1.512-1.55 4.481 4.481 0 0 1-.547-2.229 4.64 4.64 0 0 1 .31-1.71 4.352 4.352 0 0 1 .9-1.413 4.11 4.11 0 0 1 1.361-.953 4.376 4.376 0 0 1 1.761-.347 4.048 4.048 0 0 1 2.073.483c.526.303.981.713 1.336 1.202l-1.123.991a3.472 3.472 0 0 0-.937-.93 2.413 2.413 0 0 0-1.349-.346 2.437 2.437 0 0 0-1.424.409 2.715 2.715 0 0 0-.924 1.102c-.218.466-.33.975-.325 1.489a3.24 3.24 0 0 0 .325 1.45c.201.42.511.778.898 1.04a2.4 2.4 0 0 0 1.362.384c.406.017.811-.055 1.186-.211.27-.12.515-.289.724-.496l.475-.483"></path>
        <path fill="#182954" d="M101.18 44.638a3.08 3.08 0 0 1 1.524-2.702 3.486 3.486 0 0 1 3.322 0c.47.275.858.669 1.125 1.14a3.255 3.255 0 0 1 0 3.123 3.225 3.225 0 0 1-1.179 1.16 3.25 3.25 0 0 1-4.392-1.147 3.139 3.139 0 0 1-.4-1.562v-.012Zm3.173 1.872c.336.012.666-.088.937-.285a1.78 1.78 0 0 0 .562-.72c.119-.269.183-.56.187-.854a2.155 2.155 0 0 0-.187-.855 1.797 1.797 0 0 0-.562-.719 1.682 1.682 0 0 0-1.874 0c-.241.185-.43.428-.549.706a2.14 2.14 0 0 0-.188.855c.002.3.066.594.188.868.12.284.314.532.562.719.27.197.601.297.936.285"></path>
        <path fill="#182954" d="M107.849 39.222h1.487v1.562h-1.487v-1.562Zm0 2.479h1.487v5.886h-1.487v-5.886Z"></path>
        <path fill="#182954" d="M109.923 47.588v-5.874h1.424l.036.669c.197-.202.419-.377.662-.52.341-.196.731-.29 1.124-.274a2.148 2.148 0 0 1 1.687.657c.412.497.621 1.13.587 1.772v3.57h-1.499V44.03a1.17 1.17 0 0 0-.312-.868 1.084 1.084 0 0 0-.8-.31 1.32 1.32 0 0 0-1.024.446 1.588 1.588 0 0 0-.399 1.103v3.185h-1.486Z"></path>
        <path fill="#FA4A29" d="m133.803 43.101 2.624-3.88h-2.485l-1.362 2.169-1.4-2.17h-2.748l.125.174-.088-.036a5.583 5.583 0 0 0-2.035-.357 4.45 4.45 0 0 0-2.286.582 4.1 4.1 0 0 0-1.261 1.14 3.56 3.56 0 0 0-1.374-1.04 5.734 5.734 0 0 0-2.323-.448h-3.235v8.352h3.222a5.644 5.644 0 0 0 2.323-.458 3.664 3.664 0 0 0 1.374-1.029c.341.468.78.856 1.286 1.14.695.381 1.48.574 2.273.558a4.856 4.856 0 0 0 2.174-.471l-.175.26h2.448l1.636-2.566 1.686 2.566H137l-3.197-4.486Zm-13.001 1.907a2.283 2.283 0 0 1-1.7.62h-.911v-4.46h.911a2.254 2.254 0 0 1 1.749.62c.387.446.588 1.023.562 1.61a2.195 2.195 0 0 1-.612 1.612l.001-.002Zm8.954.61-1.062-.99c-.248.32-.553.593-.899.806-.37.19-.783.28-1.199.26a2.25 2.25 0 0 1-1.174-.297 2.011 2.011 0 0 1-.776-.83 2.599 2.599 0 0 1-.275-1.202 2.555 2.555 0 0 1 .262-1.178c.171-.341.435-.629.762-.83a2.267 2.267 0 0 1 1.212-.31c.394-.007.782.091 1.124.285.333.197.623.459.85.77L129.692 41l1.624 2.317-1.56 2.3Z"></path>
        <path fill="#707070" d="M76.717 47v-7.273h2.784c.526 0 .963.083 1.31.249.351.163.613.387.786.671.175.284.262.606.262.966 0 .296-.056.55-.17.76a1.433 1.433 0 0 1-.458.508c-.192.13-.406.223-.643.28v.071c.258.014.506.094.742.238.24.142.435.343.586.604.152.26.228.575.228.945 0 .376-.092.714-.274 1.015-.182.298-.457.534-.824.707-.367.173-.828.259-1.385.259h-2.944Zm1.318-1.1h1.417c.478 0 .822-.092 1.033-.274a.897.897 0 0 0 .32-.71 1.088 1.088 0 0 0-.615-.995 1.51 1.51 0 0 0-.703-.152h-1.452v2.13Zm0-3.08h1.303c.227 0 .432-.041.614-.124.183-.085.326-.205.43-.359a.96.96 0 0 0 .16-.554c0-.281-.1-.513-.298-.696-.197-.182-.49-.273-.877-.273h-1.332v2.006Zm5.997 6.225a2.594 2.594 0 0 1-.838-.135l.298-1c.187.054.354.08.5.077a.614.614 0 0 0 .388-.138c.113-.088.21-.235.287-.44l.11-.295-1.978-5.569h1.364l1.257 4.12h.057l1.26-4.12h1.368L85.92 47.66a2.452 2.452 0 0 1-.405.743 1.647 1.647 0 0 1-.618.476c-.241.11-.53.166-.866.166Z"></path>
        <defs fill="none">
            <linearGradient gradientUnits="userSpaceOnUse" y2="48" x2="24.078" y1="0" x1="24.078" id="a36a22f5-efff-4c9a-b1ec-d935139f1960_comp-lwj88nkz">
                <stop stop-color="#6246F5"></stop>
                <stop stop-color="#5166EE" offset=".493"></stop>
                <stop stop-color="#56B9F9" offset="1"></stop>
            </linearGradient>
            <clipPath id="aff6aeb6-40f7-4a15-ad7f-818f62897714_comp-lwj88nkz">
                <path transform="translate(.078)" fill="#ffffff" d="M48 0v48H0V0h48z"></path>
            </clipPath>
        </defs>
    </g>
</svg>