<svg preserveAspectRatio="xMidYMid meet" data-bbox="0 0 160 44" xmlns="http://www.w3.org/2000/svg" viewBox="0 0 160 44" height="44" width="160" data-type="color" role="presentation" aria-hidden="true" aria-label="">
    <g>
        <path fill="#161616" d="M160 22c0 12.15-9.85 22-22 22H22C9.85 44 0 34.15 0 22S9.85 0 22 0h116c12.15 0 22 9.85 22 22z" data-color="1"></path>
        <path fill="#ffffff" d="M39.59 20H38v-5c0-.55-.45-1-1-1h-4c-.55 0-1 .45-1 1v5h-1.59c-.89 0-1.34 1.08-.71 1.71l4.59 4.59c.39.39 1.02.39 1.41 0l4.59-4.59c.63-.63.19-1.71-.7-1.71ZM28 30c0 .55.45 1 1 1h12c.55 0 1-.45 1-1s-.45-1-1-1H29c-.55 0-1 .45-1 1Z" data-color="2"></path>
        <path fill="#ffffff" d="M64.396 28h-3.944V16.364h4.023c1.155 0 2.148.233 2.977.698a4.672 4.672 0 0 1 1.92 1.995c.448.867.671 1.905.671 3.114 0 1.212-.225 2.253-.676 3.125A4.673 4.673 0 0 1 67.43 27.3c-.841.466-1.853.699-3.034.699Zm-1.836-1.824h1.733c.81 0 1.487-.148 2.029-.443.541-.3.949-.744 1.221-1.335.273-.595.41-1.337.41-2.227 0-.89-.137-1.63-.41-2.216-.272-.591-.676-1.033-1.21-1.324-.53-.296-1.19-.444-1.977-.444H62.56v7.99Zm13.202 1.995c-.852 0-1.59-.188-2.216-.563a3.82 3.82 0 0 1-1.454-1.574c-.341-.674-.512-1.462-.512-2.363 0-.902.17-1.692.512-2.37a3.812 3.812 0 0 1 1.454-1.58c.625-.374 1.364-.562 2.216-.562.852 0 1.591.188 2.216.563a3.774 3.774 0 0 1 1.449 1.58c.344.677.517 1.467.517 2.369 0 .901-.172 1.689-.517 2.363a3.782 3.782 0 0 1-1.449 1.574c-.625.375-1.364.563-2.216.563Zm.011-1.648c.463 0 .849-.127 1.16-.381.31-.258.541-.602.693-1.034.155-.432.233-.913.233-1.443 0-.534-.078-1.017-.233-1.45-.152-.435-.383-.781-.694-1.039-.31-.257-.696-.386-1.159-.386-.473 0-.867.129-1.181.386-.311.258-.544.604-.7 1.04a4.353 4.353 0 0 0-.227 1.449c0 .53.076 1.011.228 1.443.155.432.388.776.699 1.034.314.254.708.38 1.181.38ZM83.241 28l-2.466-8.727h2.096l1.535 6.136h.08l1.567-6.136h2.074l1.568 6.102h.086l1.51-6.102h2.103L90.923 28H88.78l-1.637-5.898h-.12L85.389 28h-2.147Zm13.646-5.114V28H94.83v-8.727h1.966v1.483h.102c.201-.489.521-.877.96-1.165.444-.288.991-.432 1.643-.432.602 0 1.127.129 1.574.387.45.257.799.63 1.045 1.119.25.488.373 1.081.369 1.778V28h-2.056v-5.239c0-.583-.152-1.04-.455-1.369-.3-.33-.714-.494-1.244-.494-.36 0-.68.08-.96.238a1.655 1.655 0 0 0-.654.677c-.155.295-.233.653-.233 1.073Zm9.75-6.522V28h-2.057V16.364h2.057Zm5.922 11.806c-.852 0-1.591-.187-2.216-.562a3.823 3.823 0 0 1-1.455-1.574c-.34-.674-.511-1.462-.511-2.363 0-.902.171-1.692.511-2.37a3.815 3.815 0 0 1 1.455-1.58c.625-.374 1.364-.562 2.216-.562.852 0 1.591.188 2.216.563a3.775 3.775 0 0 1 1.449 1.58c.344.677.517 1.467.517 2.369 0 .901-.173 1.689-.517 2.363a3.783 3.783 0 0 1-1.449 1.574c-.625.375-1.364.563-2.216.563Zm.011-1.647c.462 0 .849-.127 1.159-.381.311-.258.542-.602.694-1.034.155-.432.233-.913.233-1.443 0-.534-.078-1.017-.233-1.45-.152-.435-.383-.781-.694-1.039-.31-.257-.697-.386-1.159-.386-.473 0-.867.129-1.182.386-.31.258-.543.604-.698 1.04a4.343 4.343 0 0 0-.228 1.449c0 .53.076 1.011.228 1.443.155.432.388.776.698 1.034.315.254.709.38 1.182.38Zm8.428 1.653a3.639 3.639 0 0 1-1.494-.295 2.44 2.44 0 0 1-1.046-.887c-.254-.39-.381-.87-.381-1.443 0-.492.091-.9.273-1.221.182-.322.43-.58.744-.773a3.764 3.764 0 0 1 1.063-.438 8.657 8.657 0 0 1 1.233-.221c.511-.053.926-.1 1.244-.142.318-.046.549-.114.693-.205.148-.095.222-.24.222-.437v-.035c0-.428-.127-.759-.381-.994-.253-.235-.619-.352-1.096-.352-.504 0-.904.11-1.199.33-.292.22-.489.479-.591.778l-1.92-.273c.151-.53.401-.973.75-1.33.348-.36.774-.628 1.278-.806a4.893 4.893 0 0 1 1.67-.273c.421 0 .839.05 1.256.148.417.098.797.261 1.142.489.345.223.621.528.83.914.212.387.318.87.318 1.45V28h-1.977v-1.199h-.069c-.125.243-.301.47-.528.682a2.548 2.548 0 0 1-.847.506 3.411 3.411 0 0 1-1.187.187Zm.534-1.511c.413 0 .771-.082 1.074-.244a1.81 1.81 0 0 0 .699-.66c.166-.272.25-.57.25-.892v-1.028a.979.979 0 0 1-.33.148 4.64 4.64 0 0 1-.511.119c-.19.034-.377.064-.563.09l-.483.069c-.306.042-.581.11-.824.205a1.368 1.368 0 0 0-.573.397c-.141.167-.211.383-.211.648 0 .379.139.665.415.858.277.193.629.29 1.057.29Zm9.381 1.488a3.3 3.3 0 0 1-1.841-.528c-.542-.352-.97-.864-1.284-1.534-.315-.67-.472-1.485-.472-2.443 0-.97.159-1.788.477-2.455.322-.67.756-1.176 1.301-1.517a3.347 3.347 0 0 1 1.824-.517c.512 0 .932.087 1.262.262.329.17.591.376.784.619.193.238.343.464.449.676h.085v-4.352h2.062V28h-2.022v-1.375h-.125c-.106.212-.26.438-.461.676-.2.235-.465.436-.795.602-.33.167-.744.25-1.244.25Zm.574-1.687c.435 0 .806-.117 1.113-.352.307-.239.54-.57.699-.995.159-.424.239-.918.239-1.483 0-.564-.08-1.055-.239-1.471-.155-.417-.386-.74-.693-.972-.303-.23-.676-.346-1.119-.346-.459 0-.841.119-1.148.357-.307.24-.538.569-.693.99-.156.42-.233.9-.233 1.442 0 .546.077 1.033.233 1.46.159.425.392.76.698 1.006.311.243.692.364 1.143.364Z" data-color="2"></path>
    </g>
</svg>